<mxfile host="app.diagrams.net" modified="2023-10-19T14:42:06.349Z" agent="Mozilla/5.0 (Windows NT 10.0; Win64; x64) AppleWebKit/537.36 (KHTML, like Gecko) Chrome/118.0.0.0 Safari/537.36" etag="VQ8ptuJoYT8Vt7uGc-4M" version="22.0.5" type="github">
  <diagram id="R2lEEEUBdFMjLlhIrx00" name="Page-1">
    <mxGraphModel dx="2168" dy="723" grid="1" gridSize="10" guides="1" tooltips="1" connect="1" arrows="1" fold="1" page="1" pageScale="1" pageWidth="850" pageHeight="1100" math="0" shadow="0" extFonts="Permanent Marker^https://fonts.googleapis.com/css?family=Permanent+Marker">
      <root>
        <mxCell id="0" />
        <mxCell id="1" parent="0" />
        <mxCell id="HopkhNpGfGtlq3h8B22g-1" value="Localidad" style="shape=table;startSize=30;container=1;collapsible=1;childLayout=tableLayout;fixedRows=1;rowLines=0;fontStyle=1;align=center;resizeLast=1;html=1;" parent="1" vertex="1">
          <mxGeometry x="-570" y="360" width="180" height="120" as="geometry" />
        </mxCell>
        <mxCell id="HopkhNpGfGtlq3h8B22g-2" value="" style="shape=tableRow;horizontal=0;startSize=0;swimlaneHead=0;swimlaneBody=0;fillColor=none;collapsible=0;dropTarget=0;points=[[0,0.5],[1,0.5]];portConstraint=eastwest;top=0;left=0;right=0;bottom=1;" parent="HopkhNpGfGtlq3h8B22g-1" vertex="1">
          <mxGeometry y="30" width="180" height="30" as="geometry" />
        </mxCell>
        <mxCell id="HopkhNpGfGtlq3h8B22g-3" value="PK" style="shape=partialRectangle;connectable=0;fillColor=none;top=0;left=0;bottom=0;right=0;fontStyle=1;overflow=hidden;whiteSpace=wrap;html=1;" parent="HopkhNpGfGtlq3h8B22g-2" vertex="1">
          <mxGeometry width="30" height="30" as="geometry">
            <mxRectangle width="30" height="30" as="alternateBounds" />
          </mxGeometry>
        </mxCell>
        <mxCell id="HopkhNpGfGtlq3h8B22g-4" value="id_localidad" style="shape=partialRectangle;connectable=0;fillColor=none;top=0;left=0;bottom=0;right=0;align=left;spacingLeft=6;fontStyle=5;overflow=hidden;whiteSpace=wrap;html=1;" parent="HopkhNpGfGtlq3h8B22g-2" vertex="1">
          <mxGeometry x="30" width="150" height="30" as="geometry">
            <mxRectangle width="150" height="30" as="alternateBounds" />
          </mxGeometry>
        </mxCell>
        <mxCell id="HopkhNpGfGtlq3h8B22g-5" value="" style="shape=tableRow;horizontal=0;startSize=0;swimlaneHead=0;swimlaneBody=0;fillColor=none;collapsible=0;dropTarget=0;points=[[0,0.5],[1,0.5]];portConstraint=eastwest;top=0;left=0;right=0;bottom=0;" parent="HopkhNpGfGtlq3h8B22g-1" vertex="1">
          <mxGeometry y="60" width="180" height="30" as="geometry" />
        </mxCell>
        <mxCell id="HopkhNpGfGtlq3h8B22g-6" value="" style="shape=partialRectangle;connectable=0;fillColor=none;top=0;left=0;bottom=0;right=0;editable=1;overflow=hidden;whiteSpace=wrap;html=1;" parent="HopkhNpGfGtlq3h8B22g-5" vertex="1">
          <mxGeometry width="30" height="30" as="geometry">
            <mxRectangle width="30" height="30" as="alternateBounds" />
          </mxGeometry>
        </mxCell>
        <mxCell id="HopkhNpGfGtlq3h8B22g-7" value="nombre" style="shape=partialRectangle;connectable=0;fillColor=none;top=0;left=0;bottom=0;right=0;align=left;spacingLeft=6;overflow=hidden;whiteSpace=wrap;html=1;" parent="HopkhNpGfGtlq3h8B22g-5" vertex="1">
          <mxGeometry x="30" width="150" height="30" as="geometry">
            <mxRectangle width="150" height="30" as="alternateBounds" />
          </mxGeometry>
        </mxCell>
        <mxCell id="HopkhNpGfGtlq3h8B22g-8" value="" style="shape=tableRow;horizontal=0;startSize=0;swimlaneHead=0;swimlaneBody=0;fillColor=none;collapsible=0;dropTarget=0;points=[[0,0.5],[1,0.5]];portConstraint=eastwest;top=0;left=0;right=0;bottom=0;" parent="HopkhNpGfGtlq3h8B22g-1" vertex="1">
          <mxGeometry y="90" width="180" height="30" as="geometry" />
        </mxCell>
        <mxCell id="HopkhNpGfGtlq3h8B22g-9" value="" style="shape=partialRectangle;connectable=0;fillColor=none;top=0;left=0;bottom=0;right=0;editable=1;overflow=hidden;whiteSpace=wrap;html=1;" parent="HopkhNpGfGtlq3h8B22g-8" vertex="1">
          <mxGeometry width="30" height="30" as="geometry">
            <mxRectangle width="30" height="30" as="alternateBounds" />
          </mxGeometry>
        </mxCell>
        <mxCell id="HopkhNpGfGtlq3h8B22g-10" value="poblacion" style="shape=partialRectangle;connectable=0;fillColor=none;top=0;left=0;bottom=0;right=0;align=left;spacingLeft=6;overflow=hidden;whiteSpace=wrap;html=1;" parent="HopkhNpGfGtlq3h8B22g-8" vertex="1">
          <mxGeometry x="30" width="150" height="30" as="geometry">
            <mxRectangle width="150" height="30" as="alternateBounds" />
          </mxGeometry>
        </mxCell>
        <mxCell id="HopkhNpGfGtlq3h8B22g-14" value="Provincia" style="shape=table;startSize=30;container=1;collapsible=1;childLayout=tableLayout;fixedRows=1;rowLines=0;fontStyle=1;align=center;resizeLast=1;html=1;" parent="1" vertex="1">
          <mxGeometry x="-149" y="360" width="180" height="150" as="geometry" />
        </mxCell>
        <mxCell id="HopkhNpGfGtlq3h8B22g-15" value="" style="shape=tableRow;horizontal=0;startSize=0;swimlaneHead=0;swimlaneBody=0;fillColor=none;collapsible=0;dropTarget=0;points=[[0,0.5],[1,0.5]];portConstraint=eastwest;top=0;left=0;right=0;bottom=1;" parent="HopkhNpGfGtlq3h8B22g-14" vertex="1">
          <mxGeometry y="30" width="180" height="30" as="geometry" />
        </mxCell>
        <mxCell id="HopkhNpGfGtlq3h8B22g-16" value="PK" style="shape=partialRectangle;connectable=0;fillColor=none;top=0;left=0;bottom=0;right=0;fontStyle=1;overflow=hidden;whiteSpace=wrap;html=1;" parent="HopkhNpGfGtlq3h8B22g-15" vertex="1">
          <mxGeometry width="30" height="30" as="geometry">
            <mxRectangle width="30" height="30" as="alternateBounds" />
          </mxGeometry>
        </mxCell>
        <mxCell id="HopkhNpGfGtlq3h8B22g-17" value="cod_postal" style="shape=partialRectangle;connectable=0;fillColor=none;top=0;left=0;bottom=0;right=0;align=left;spacingLeft=6;fontStyle=5;overflow=hidden;whiteSpace=wrap;html=1;" parent="HopkhNpGfGtlq3h8B22g-15" vertex="1">
          <mxGeometry x="30" width="150" height="30" as="geometry">
            <mxRectangle width="150" height="30" as="alternateBounds" />
          </mxGeometry>
        </mxCell>
        <mxCell id="HopkhNpGfGtlq3h8B22g-18" value="" style="shape=tableRow;horizontal=0;startSize=0;swimlaneHead=0;swimlaneBody=0;fillColor=none;collapsible=0;dropTarget=0;points=[[0,0.5],[1,0.5]];portConstraint=eastwest;top=0;left=0;right=0;bottom=0;" parent="HopkhNpGfGtlq3h8B22g-14" vertex="1">
          <mxGeometry y="60" width="180" height="30" as="geometry" />
        </mxCell>
        <mxCell id="HopkhNpGfGtlq3h8B22g-19" value="" style="shape=partialRectangle;connectable=0;fillColor=none;top=0;left=0;bottom=0;right=0;editable=1;overflow=hidden;whiteSpace=wrap;html=1;" parent="HopkhNpGfGtlq3h8B22g-18" vertex="1">
          <mxGeometry width="30" height="30" as="geometry">
            <mxRectangle width="30" height="30" as="alternateBounds" />
          </mxGeometry>
        </mxCell>
        <mxCell id="HopkhNpGfGtlq3h8B22g-20" value="nombre" style="shape=partialRectangle;connectable=0;fillColor=none;top=0;left=0;bottom=0;right=0;align=left;spacingLeft=6;overflow=hidden;whiteSpace=wrap;html=1;" parent="HopkhNpGfGtlq3h8B22g-18" vertex="1">
          <mxGeometry x="30" width="150" height="30" as="geometry">
            <mxRectangle width="150" height="30" as="alternateBounds" />
          </mxGeometry>
        </mxCell>
        <mxCell id="HopkhNpGfGtlq3h8B22g-21" value="" style="shape=tableRow;horizontal=0;startSize=0;swimlaneHead=0;swimlaneBody=0;fillColor=none;collapsible=0;dropTarget=0;points=[[0,0.5],[1,0.5]];portConstraint=eastwest;top=0;left=0;right=0;bottom=0;" parent="HopkhNpGfGtlq3h8B22g-14" vertex="1">
          <mxGeometry y="90" width="180" height="30" as="geometry" />
        </mxCell>
        <mxCell id="HopkhNpGfGtlq3h8B22g-22" value="" style="shape=partialRectangle;connectable=0;fillColor=none;top=0;left=0;bottom=0;right=0;editable=1;overflow=hidden;whiteSpace=wrap;html=1;" parent="HopkhNpGfGtlq3h8B22g-21" vertex="1">
          <mxGeometry width="30" height="30" as="geometry">
            <mxRectangle width="30" height="30" as="alternateBounds" />
          </mxGeometry>
        </mxCell>
        <mxCell id="HopkhNpGfGtlq3h8B22g-23" value="poblacion" style="shape=partialRectangle;connectable=0;fillColor=none;top=0;left=0;bottom=0;right=0;align=left;spacingLeft=6;overflow=hidden;whiteSpace=wrap;html=1;" parent="HopkhNpGfGtlq3h8B22g-21" vertex="1">
          <mxGeometry x="30" width="150" height="30" as="geometry">
            <mxRectangle width="150" height="30" as="alternateBounds" />
          </mxGeometry>
        </mxCell>
        <mxCell id="HopkhNpGfGtlq3h8B22g-24" value="" style="shape=tableRow;horizontal=0;startSize=0;swimlaneHead=0;swimlaneBody=0;fillColor=none;collapsible=0;dropTarget=0;points=[[0,0.5],[1,0.5]];portConstraint=eastwest;top=0;left=0;right=0;bottom=0;" parent="HopkhNpGfGtlq3h8B22g-14" vertex="1">
          <mxGeometry y="120" width="180" height="30" as="geometry" />
        </mxCell>
        <mxCell id="HopkhNpGfGtlq3h8B22g-25" value="" style="shape=partialRectangle;connectable=0;fillColor=none;top=0;left=0;bottom=0;right=0;editable=1;overflow=hidden;whiteSpace=wrap;html=1;" parent="HopkhNpGfGtlq3h8B22g-24" vertex="1">
          <mxGeometry width="30" height="30" as="geometry">
            <mxRectangle width="30" height="30" as="alternateBounds" />
          </mxGeometry>
        </mxCell>
        <mxCell id="HopkhNpGfGtlq3h8B22g-26" value="superficie" style="shape=partialRectangle;connectable=0;fillColor=none;top=0;left=0;bottom=0;right=0;align=left;spacingLeft=6;overflow=hidden;whiteSpace=wrap;html=1;" parent="HopkhNpGfGtlq3h8B22g-24" vertex="1">
          <mxGeometry x="30" width="150" height="30" as="geometry">
            <mxRectangle width="150" height="30" as="alternateBounds" />
          </mxGeometry>
        </mxCell>
        <mxCell id="HopkhNpGfGtlq3h8B22g-27" value="ComunidadAutonoma" style="shape=table;startSize=30;container=1;collapsible=1;childLayout=tableLayout;fixedRows=1;rowLines=0;fontStyle=1;align=center;resizeLast=1;html=1;" parent="1" vertex="1">
          <mxGeometry x="269" y="360" width="187" height="120" as="geometry" />
        </mxCell>
        <mxCell id="HopkhNpGfGtlq3h8B22g-28" value="" style="shape=tableRow;horizontal=0;startSize=0;swimlaneHead=0;swimlaneBody=0;fillColor=none;collapsible=0;dropTarget=0;points=[[0,0.5],[1,0.5]];portConstraint=eastwest;top=0;left=0;right=0;bottom=1;" parent="HopkhNpGfGtlq3h8B22g-27" vertex="1">
          <mxGeometry y="30" width="187" height="40" as="geometry" />
        </mxCell>
        <mxCell id="HopkhNpGfGtlq3h8B22g-29" value="PK" style="shape=partialRectangle;connectable=0;fillColor=none;top=0;left=0;bottom=0;right=0;fontStyle=1;overflow=hidden;whiteSpace=wrap;html=1;" parent="HopkhNpGfGtlq3h8B22g-28" vertex="1">
          <mxGeometry width="30" height="40" as="geometry">
            <mxRectangle width="30" height="40" as="alternateBounds" />
          </mxGeometry>
        </mxCell>
        <mxCell id="HopkhNpGfGtlq3h8B22g-30" value="nombre" style="shape=partialRectangle;connectable=0;fillColor=none;top=0;left=0;bottom=0;right=0;align=left;spacingLeft=6;fontStyle=5;overflow=hidden;whiteSpace=wrap;html=1;" parent="HopkhNpGfGtlq3h8B22g-28" vertex="1">
          <mxGeometry x="30" width="157" height="40" as="geometry">
            <mxRectangle width="157" height="40" as="alternateBounds" />
          </mxGeometry>
        </mxCell>
        <mxCell id="HopkhNpGfGtlq3h8B22g-34" value="" style="shape=tableRow;horizontal=0;startSize=0;swimlaneHead=0;swimlaneBody=0;fillColor=none;collapsible=0;dropTarget=0;points=[[0,0.5],[1,0.5]];portConstraint=eastwest;top=0;left=0;right=0;bottom=0;" parent="HopkhNpGfGtlq3h8B22g-27" vertex="1">
          <mxGeometry y="70" width="187" height="20" as="geometry" />
        </mxCell>
        <mxCell id="HopkhNpGfGtlq3h8B22g-35" value="" style="shape=partialRectangle;connectable=0;fillColor=none;top=0;left=0;bottom=0;right=0;editable=1;overflow=hidden;whiteSpace=wrap;html=1;" parent="HopkhNpGfGtlq3h8B22g-34" vertex="1">
          <mxGeometry width="30" height="20" as="geometry">
            <mxRectangle width="30" height="20" as="alternateBounds" />
          </mxGeometry>
        </mxCell>
        <mxCell id="HopkhNpGfGtlq3h8B22g-36" value="poblacion" style="shape=partialRectangle;connectable=0;fillColor=none;top=0;left=0;bottom=0;right=0;align=left;spacingLeft=6;overflow=hidden;whiteSpace=wrap;html=1;" parent="HopkhNpGfGtlq3h8B22g-34" vertex="1">
          <mxGeometry x="30" width="157" height="20" as="geometry">
            <mxRectangle width="157" height="20" as="alternateBounds" />
          </mxGeometry>
        </mxCell>
        <mxCell id="HopkhNpGfGtlq3h8B22g-37" value="" style="shape=tableRow;horizontal=0;startSize=0;swimlaneHead=0;swimlaneBody=0;fillColor=none;collapsible=0;dropTarget=0;points=[[0,0.5],[1,0.5]];portConstraint=eastwest;top=0;left=0;right=0;bottom=0;" parent="HopkhNpGfGtlq3h8B22g-27" vertex="1">
          <mxGeometry y="90" width="187" height="30" as="geometry" />
        </mxCell>
        <mxCell id="HopkhNpGfGtlq3h8B22g-38" value="" style="shape=partialRectangle;connectable=0;fillColor=none;top=0;left=0;bottom=0;right=0;editable=1;overflow=hidden;whiteSpace=wrap;html=1;" parent="HopkhNpGfGtlq3h8B22g-37" vertex="1">
          <mxGeometry width="30" height="30" as="geometry">
            <mxRectangle width="30" height="30" as="alternateBounds" />
          </mxGeometry>
        </mxCell>
        <mxCell id="HopkhNpGfGtlq3h8B22g-39" value="superficie" style="shape=partialRectangle;connectable=0;fillColor=none;top=0;left=0;bottom=0;right=0;align=left;spacingLeft=6;overflow=hidden;whiteSpace=wrap;html=1;" parent="HopkhNpGfGtlq3h8B22g-37" vertex="1">
          <mxGeometry x="30" width="157" height="30" as="geometry">
            <mxRectangle width="157" height="30" as="alternateBounds" />
          </mxGeometry>
        </mxCell>
        <mxCell id="HopkhNpGfGtlq3h8B22g-40" value="es capital" style="shape=rhombus;perimeter=rhombusPerimeter;whiteSpace=wrap;html=1;align=center;" parent="1" vertex="1">
          <mxGeometry x="-328" y="405" width="120" height="60" as="geometry" />
        </mxCell>
        <mxCell id="HopkhNpGfGtlq3h8B22g-41" value="pertenece&lt;br&gt;a" style="shape=rhombus;perimeter=rhombusPerimeter;whiteSpace=wrap;html=1;align=center;" parent="1" vertex="1">
          <mxGeometry x="85" y="405" width="120" height="60" as="geometry" />
        </mxCell>
        <mxCell id="HopkhNpGfGtlq3h8B22g-42" value="" style="edgeStyle=entityRelationEdgeStyle;fontSize=12;html=1;endArrow=ERoneToMany;rounded=0;exitX=0;exitY=0.5;exitDx=0;exitDy=0;" parent="1" source="HopkhNpGfGtlq3h8B22g-40" target="HopkhNpGfGtlq3h8B22g-5" edge="1">
          <mxGeometry width="100" height="100" relative="1" as="geometry">
            <mxPoint x="-204" y="560" as="sourcePoint" />
            <mxPoint x="-104" y="460" as="targetPoint" />
          </mxGeometry>
        </mxCell>
        <mxCell id="HopkhNpGfGtlq3h8B22g-43" value="" style="edgeStyle=entityRelationEdgeStyle;fontSize=12;html=1;endArrow=ERone;endFill=1;rounded=0;entryX=0;entryY=0.5;entryDx=0;entryDy=0;" parent="1" source="HopkhNpGfGtlq3h8B22g-40" target="HopkhNpGfGtlq3h8B22g-14" edge="1">
          <mxGeometry width="100" height="100" relative="1" as="geometry">
            <mxPoint x="-204" y="560" as="sourcePoint" />
            <mxPoint x="-104" y="460" as="targetPoint" />
          </mxGeometry>
        </mxCell>
        <mxCell id="HopkhNpGfGtlq3h8B22g-46" value="" style="edgeStyle=entityRelationEdgeStyle;fontSize=12;html=1;endArrow=ERoneToMany;rounded=0;entryX=1;entryY=0.5;entryDx=0;entryDy=0;exitX=0;exitY=0.5;exitDx=0;exitDy=0;" parent="1" source="HopkhNpGfGtlq3h8B22g-41" target="HopkhNpGfGtlq3h8B22g-18" edge="1">
          <mxGeometry width="100" height="100" relative="1" as="geometry">
            <mxPoint x="66" y="540" as="sourcePoint" />
            <mxPoint x="166" y="440" as="targetPoint" />
          </mxGeometry>
        </mxCell>
        <mxCell id="HopkhNpGfGtlq3h8B22g-47" value="" style="edgeStyle=entityRelationEdgeStyle;fontSize=12;html=1;endArrow=ERone;endFill=1;rounded=0;entryX=1;entryY=1;entryDx=0;entryDy=0;" parent="1" target="_uWc8Jl2jJAV89AR7G0l-5" edge="1">
          <mxGeometry width="100" height="100" relative="1" as="geometry">
            <mxPoint x="206" y="435" as="sourcePoint" />
            <mxPoint x="269" y="440" as="targetPoint" />
          </mxGeometry>
        </mxCell>
        <mxCell id="_uWc8Jl2jJAV89AR7G0l-1" value="1,1" style="text;html=1;strokeColor=none;fillColor=none;align=center;verticalAlign=middle;whiteSpace=wrap;rounded=0;" parent="1" vertex="1">
          <mxGeometry x="-208" y="405" width="60" height="30" as="geometry" />
        </mxCell>
        <mxCell id="_uWc8Jl2jJAV89AR7G0l-2" value="1,n" style="text;html=1;strokeColor=none;fillColor=none;align=center;verticalAlign=middle;whiteSpace=wrap;rounded=0;" parent="1" vertex="1">
          <mxGeometry x="-394" y="405" width="60" height="30" as="geometry" />
        </mxCell>
        <mxCell id="_uWc8Jl2jJAV89AR7G0l-3" value="N:1" style="text;html=1;strokeColor=none;fillColor=none;align=center;verticalAlign=middle;whiteSpace=wrap;rounded=0;" parent="1" vertex="1">
          <mxGeometry x="-298" y="375" width="60" height="30" as="geometry" />
        </mxCell>
        <mxCell id="_uWc8Jl2jJAV89AR7G0l-4" value="N:1" style="text;html=1;strokeColor=none;fillColor=none;align=center;verticalAlign=middle;whiteSpace=wrap;rounded=0;" parent="1" vertex="1">
          <mxGeometry x="116" y="375" width="60" height="30" as="geometry" />
        </mxCell>
        <mxCell id="_uWc8Jl2jJAV89AR7G0l-5" value="1,1" style="text;html=1;strokeColor=none;fillColor=none;align=center;verticalAlign=middle;whiteSpace=wrap;rounded=0;" parent="1" vertex="1">
          <mxGeometry x="209" y="405" width="60" height="30" as="geometry" />
        </mxCell>
        <mxCell id="_uWc8Jl2jJAV89AR7G0l-6" value="1,n" style="text;html=1;strokeColor=none;fillColor=none;align=center;verticalAlign=middle;whiteSpace=wrap;rounded=0;" parent="1" vertex="1">
          <mxGeometry x="31" y="405" width="60" height="30" as="geometry" />
        </mxCell>
        <mxCell id="L8JuvWdBPQvHxdB8sL07-1" value="es capital" style="shape=rhombus;perimeter=rhombusPerimeter;whiteSpace=wrap;html=1;align=center;" parent="1" vertex="1">
          <mxGeometry x="-119" y="240" width="120" height="60" as="geometry" />
        </mxCell>
        <mxCell id="L8JuvWdBPQvHxdB8sL07-3" value="" style="endArrow=none;html=1;rounded=0;exitX=0.5;exitY=0;exitDx=0;exitDy=0;entryX=0;entryY=0.5;entryDx=0;entryDy=0;" parent="1" source="HopkhNpGfGtlq3h8B22g-1" target="L8JuvWdBPQvHxdB8sL07-1" edge="1">
          <mxGeometry relative="1" as="geometry">
            <mxPoint x="-104" y="650" as="sourcePoint" />
            <mxPoint x="56" y="650" as="targetPoint" />
            <Array as="points">
              <mxPoint x="-480" y="270" />
            </Array>
          </mxGeometry>
        </mxCell>
        <mxCell id="L8JuvWdBPQvHxdB8sL07-4" value="" style="endArrow=none;html=1;rounded=0;entryX=0.5;entryY=0;entryDx=0;entryDy=0;exitX=1;exitY=0.5;exitDx=0;exitDy=0;" parent="1" source="L8JuvWdBPQvHxdB8sL07-1" target="HopkhNpGfGtlq3h8B22g-27" edge="1">
          <mxGeometry relative="1" as="geometry">
            <mxPoint x="-104" y="490" as="sourcePoint" />
            <mxPoint x="56" y="490" as="targetPoint" />
            <Array as="points">
              <mxPoint x="363" y="270" />
            </Array>
          </mxGeometry>
        </mxCell>
        <mxCell id="L8JuvWdBPQvHxdB8sL07-5" value="0,1" style="text;html=1;strokeColor=none;fillColor=none;align=center;verticalAlign=middle;whiteSpace=wrap;rounded=0;" parent="1" vertex="1">
          <mxGeometry x="316" y="330" width="60" height="30" as="geometry" />
        </mxCell>
        <mxCell id="L8JuvWdBPQvHxdB8sL07-6" value="1:1" style="text;html=1;strokeColor=none;fillColor=none;align=center;verticalAlign=middle;whiteSpace=wrap;rounded=0;" parent="1" vertex="1">
          <mxGeometry x="-89" y="210" width="60" height="30" as="geometry" />
        </mxCell>
        <mxCell id="L8JuvWdBPQvHxdB8sL07-7" value="1,1" style="text;html=1;strokeColor=none;fillColor=none;align=center;verticalAlign=middle;whiteSpace=wrap;rounded=0;" parent="1" vertex="1">
          <mxGeometry x="-494" y="330" width="60" height="30" as="geometry" />
        </mxCell>
        <mxCell id="L8JuvWdBPQvHxdB8sL07-8" value="pertenece a" style="shape=rhombus;perimeter=rhombusPerimeter;whiteSpace=wrap;html=1;align=center;" parent="1" vertex="1">
          <mxGeometry x="-109" y="570" width="120" height="60" as="geometry" />
        </mxCell>
        <mxCell id="L8JuvWdBPQvHxdB8sL07-9" value="" style="endArrow=none;html=1;rounded=0;exitX=0.552;exitY=0.933;exitDx=0;exitDy=0;entryX=0;entryY=0.5;entryDx=0;entryDy=0;exitPerimeter=0;" parent="1" source="HopkhNpGfGtlq3h8B22g-8" target="L8JuvWdBPQvHxdB8sL07-8" edge="1">
          <mxGeometry relative="1" as="geometry">
            <mxPoint x="-470.6399999999999" y="500.1600000000001" as="sourcePoint" />
            <mxPoint x="66" y="980" as="targetPoint" />
            <Array as="points">
              <mxPoint x="-470" y="600" />
            </Array>
          </mxGeometry>
        </mxCell>
        <mxCell id="L8JuvWdBPQvHxdB8sL07-10" value="" style="endArrow=none;html=1;rounded=0;exitX=1;exitY=0.5;exitDx=0;exitDy=0;entryX=0.552;entryY=1.022;entryDx=0;entryDy=0;entryPerimeter=0;" parent="1" source="L8JuvWdBPQvHxdB8sL07-8" target="HopkhNpGfGtlq3h8B22g-37" edge="1">
          <mxGeometry relative="1" as="geometry">
            <mxPoint x="-94" y="820" as="sourcePoint" />
            <mxPoint x="373" y="510" as="targetPoint" />
            <Array as="points">
              <mxPoint x="373" y="600" />
            </Array>
          </mxGeometry>
        </mxCell>
        <mxCell id="L8JuvWdBPQvHxdB8sL07-11" value="1,1" style="text;html=1;strokeColor=none;fillColor=none;align=center;verticalAlign=middle;whiteSpace=wrap;rounded=0;" parent="1" vertex="1">
          <mxGeometry x="326" y="480" width="60" height="30" as="geometry" />
        </mxCell>
        <mxCell id="L8JuvWdBPQvHxdB8sL07-12" value="&lt;br&gt;N:1" style="text;html=1;strokeColor=none;fillColor=none;align=center;verticalAlign=middle;whiteSpace=wrap;rounded=0;" parent="1" vertex="1">
          <mxGeometry x="-79" y="530" width="60" height="30" as="geometry" />
        </mxCell>
        <mxCell id="L8JuvWdBPQvHxdB8sL07-13" value="1,n" style="text;html=1;strokeColor=none;fillColor=none;align=center;verticalAlign=middle;whiteSpace=wrap;rounded=0;" parent="1" vertex="1">
          <mxGeometry x="-484" y="500" width="60" height="30" as="geometry" />
        </mxCell>
        <mxCell id="tmCwzIYjLIbn-xu6IH11-2" value="&lt;div style=&quot;text-align: justify; line-height: 180%;&quot;&gt;&lt;span style=&quot;font-size: 16px; background-color: initial;&quot;&gt;Localidad(&lt;/span&gt;&lt;span style=&quot;font-size: 16px; background-color: initial;&quot;&gt;&lt;b&gt;id_localidad&lt;/b&gt;&lt;/span&gt;&lt;span style=&quot;font-size: 16px; background-color: initial;&quot;&gt;, &lt;u&gt;fk_cod_postal&lt;/u&gt;, &lt;u&gt;fk_nombre_ca&lt;/u&gt;, nombre, poblacion)&lt;/span&gt;&lt;/div&gt;&lt;font style=&quot;font-size: 16px;&quot;&gt;&lt;div style=&quot;text-align: justify; line-height: 180%;&quot;&gt;&lt;span style=&quot;background-color: initial;&quot;&gt;Provincia(&lt;/span&gt;&lt;span style=&quot;background-color: initial;&quot;&gt;&lt;b&gt;cod_postal&lt;/b&gt;&lt;/span&gt;&lt;span style=&quot;background-color: initial;&quot;&gt;,&lt;u&gt;fk_nombre_ca&lt;/u&gt;, nombre, poblacion, superficie)&lt;/span&gt;&lt;/div&gt;&lt;div style=&quot;text-align: justify; line-height: 180%;&quot;&gt;&lt;span style=&quot;background-color: initial;&quot;&gt;ComunidadAutonoma(&lt;/span&gt;&lt;u style=&quot;background-color: initial;&quot;&gt;&lt;b&gt;nombre&lt;/b&gt;&lt;/u&gt;&lt;span style=&quot;background-color: initial;&quot;&gt;, poblacion, superficie)&lt;/span&gt;&lt;/div&gt;&lt;/font&gt;" style="text;html=1;strokeColor=none;fillColor=none;align=center;verticalAlign=middle;whiteSpace=wrap;rounded=0;" parent="1" vertex="1">
          <mxGeometry x="-484" y="730" width="550" height="30" as="geometry" />
        </mxCell>
      </root>
    </mxGraphModel>
  </diagram>
</mxfile>
